[ConversionWorker] Logging FFmpeg output to: ffmpeg_logs\ffmpeg_conversion_t_wav_20250525_155026.log\n[ConversionWorker] Getting duration with command: ffprobe -v error -show_entries format=duration -of default=noprint_wrappers=1:nokey=1 Z:\AAAAA01\t.wav\n[ConversionWorker] Duration for t.wav: 11418446 ms\n[ConversionWorker] Starting FFmpeg for t.wav: ffmpeg -i Z:\AAAAA01\t.wav -b:a 256k -vn -y -loglevel error -stats -progress pipe:1 Z:\AAAAA01\t.mp3\n[ConversionWorker] FFmpeg process started. PID: 22836\n[STDOUT RAW] bitrate= 154.8kbits/s\n[STDOUT RAW] total_size=100844\n[STDOUT RAW] out_time_us=5209958\n[STDOUT RAW] out_time_ms=5209958\n[STDOUT RAW] out_time=00:00:05.209958\n[STDOUT RAW] dup_frames=0\n[STDOUT RAW] drop_frames=0\n[STDOUT RAW] speed=10.1x\n[STDOUT RAW] progress=continue\n[STDERR RAW] size=      98KiB time=00:00:05.20 bitrate= 154.8kbits/s speed=10.1x\n[STDOUT RAW] bitrate= 157.4kbits/s\n[STDOUT RAW] total_size=203084\n[STDOUT RAW] out_time_us=10321958\n[STDOUT RAW] out_time_ms=10321958\n[STDOUT RAW] out_time=00:00:10.321958\n[STDOUT RAW] dup_frames=0\n[STDOUT RAW] drop_frames=0\n[STDOUT RAW] speed=9.93x\n[STDOUT RAW] progress=continue\n[STDERR RAW] size=     198KiB time=00:00:10.32 bitrate= 157.4kbits/s speed=9.93x\n[STDOUT RAW] bitrate= 152.4kbits/s\n[STDOUT RAW] total_size=1048576\n[STDOUT RAW] out_time_us=55033958\n[STDOUT RAW] out_time_ms=55033958\n[STDOUT RAW] out_time=00:00:55.033958\n[STDOUT RAW] dup_frames=0\n[STDOUT RAW] drop_frames=0\n[STDOUT RAW] speed=35.5x\n[STDOUT RAW] progress=continue\n[STDERR RAW] size=    1024KiB time=00:00:55.03 bitrate= 152.4kbits/s speed=35.5x\n[STDOUT RAW] bitrate= 151.0kbits/s\n[STDOUT RAW] total_size=2883584\n[STDOUT RAW] out_time_us=152761958\n[STDOUT RAW] out_time_ms=152761958\n[STDOUT RAW] out_time=00:02:32.761958\n[STDOUT RAW] dup_frames=0\n[STDOUT RAW] drop_frames=0\n[STDOUT RAW] speed=73.8x\n[STDOUT RAW] progress=continue\n[STDERR RAW] size=    2816KiB time=00:02:32.76 bitrate= 151.0kbits/s speed=73.8x\n[STDOUT RAW] bitrate= 151.5kbits/s\n[STDOUT RAW] total_size=4718592\n[STDOUT RAW] out_time_us=249169958\n[STDOUT RAW] out_time_ms=249169958\n[STDOUT RAW] out_time=00:04:09.169958\n[STDOUT RAW] dup_frames=0\n[STDOUT RAW] drop_frames=0\n[STDOUT RAW] speed=96.7x\n[STDOUT RAW] progress=continue\n[STDERR RAW] size=    4608KiB time=00:04:09.16 bitrate= 151.5kbits/s speed=96.7x\n[STDOUT RAW] bitrate= 154.3kbits/s\n[STDOUT RAW] total_size=6815744\n[STDOUT RAW] out_time_us=353425958\n[STDOUT RAW] out_time_ms=353425958\n[STDOUT RAW] out_time=00:05:53.425958\n[STDOUT RAW] dup_frames=0\n[STDOUT RAW] drop_frames=0\n[STDOUT RAW] speed= 114x\n[STDOUT RAW] progress=continue\n[STDERR RAW] size=    6656KiB time=00:05:53.42 bitrate= 154.3kbits/s speed= 114x\n[STDOUT RAW] bitrate= 156.4kbits/s\n[STDOUT RAW] total_size=8912896\n[STDOUT RAW] out_time_us=455833958\n[STDOUT RAW] out_time_ms=455833958\n[STDOUT RAW] out_time=00:07:35.833958\n[STDOUT RAW] dup_frames=0\n[STDOUT RAW] drop_frames=0\n[STDOUT RAW] speed= 126x\n[STDOUT RAW] progress=continue\n[STDERR RAW] size=    8704KiB time=00:07:35.83 bitrate= 156.4kbits/s speed= 126x\n[STDOUT RAW] bitrate= 156.2kbits/s\n[STDOUT RAW] total_size=11010048\n[STDOUT RAW] out_time_us=563737958\n[STDOUT RAW] out_time_ms=563737958\n[STDOUT RAW] out_time=00:09:23.737958\n[STDOUT RAW] dup_frames=0\n[STDOUT RAW] drop_frames=0\n[STDOUT RAW] speed= 137x\n[STDOUT RAW] progress=continue\n[STDERR RAW] size=   10752KiB time=00:09:23.73 bitrate= 156.2kbits/s speed= 137x\n[STDOUT RAW] bitrate= 159.5kbits/s\n[STDOUT RAW] total_size=13369344\n[STDOUT RAW] out_time_us=670537958\n[STDOUT RAW] out_time_ms=670537958\n[STDOUT RAW] out_time=00:11:10.537958\n[STDOUT RAW] dup_frames=0\n[STDOUT RAW] drop_frames=0\n[STDOUT RAW] speed= 144x\n[STDOUT RAW] progress=continue\n[STDERR RAW] size=   13056KiB time=00:11:10.53 bitrate= 159.5kbits/s speed= 144x\n[STDOUT RAW] bitrate= 159.1kbits/s\n[STDOUT RAW] total_size=15466496\n[STDOUT RAW] out_time_us=777673958\n[STDOUT RAW] out_time_ms=777673958\n[STDOUT RAW] out_time=00:12:57.673958\n[STDOUT RAW] dup_frames=0\n[STDOUT RAW] drop_frames=0\n[STDOUT RAW] speed= 151x\n[STDOUT RAW] progress=continue\n[STDERR RAW] size=   15104KiB time=00:12:57.67 bitrate= 159.1kbits/s speed= 151x\n[STDOUT RAW] bitrate= 157.9kbits/s\n[STDOUT RAW] total_size=17563648\n[STDOUT RAW] out_time_us=889777958\n[STDOUT RAW] out_time_ms=889777958\n[STDOUT RAW] out_time=00:14:49.777958\n[STDOUT RAW] dup_frames=0\n[STDOUT RAW] drop_frames=0\n[STDOUT RAW] speed= 157x\n[STDOUT RAW] progress=continue\n[STDERR RAW] size=   17152KiB time=00:14:49.77 bitrate= 157.9kbits/s speed= 157x\n[STDOUT RAW] bitrate= 158.4kbits/s\n[STDOUT RAW] total_size=19660800\n[STDOUT RAW] out_time_us=993097958\n[STDOUT RAW] out_time_ms=993097958\n[STDOUT RAW] out_time=00:16:33.097958\n[STDOUT RAW] dup_frames=0\n[STDOUT RAW] drop_frames=0\n[STDOUT RAW] speed= 160x\n[STDOUT RAW] progress=continue\n[STDERR RAW] size=   19200KiB time=00:16:33.09 bitrate= 158.4kbits/s speed= 160x\n[STDOUT RAW] bitrate= 158.4kbits/s\n[STDOUT RAW] total_size=21757952\n[STDOUT RAW] out_time_us=1099033958\n[STDOUT RAW] out_time_ms=1099033958\n[STDOUT RAW] out_time=00:18:19.033958\n[STDOUT RAW] dup_frames=0\n[STDOUT RAW] drop_frames=0\n[STDOUT RAW] speed= 164x\n[STDOUT RAW] progress=continue\n[STDOUT RAW] bitrate= 158.8kbits/s\n[STDERR RAW] size=   21248KiB time=00:18:19.03 bitrate= 158.4kbits/s speed= 164x\n[STDOUT RAW] total_size=23855104\n[STDOUT RAW] out_time_us=1201417958\n[STDOUT RAW] out_time_ms=1201417958\n[STDOUT RAW] out_time=00:20:01.417958\n[STDOUT RAW] dup_frames=0\n[STDOUT RAW] drop_frames=0\n[STDOUT RAW] speed= 166x\n[STDOUT RAW] progress=continue\n[STDERR RAW] size=   23296KiB time=00:20:01.41 bitrate= 158.8kbits/s speed= 166x\n[STDOUT RAW] bitrate= 158.8kbits/s\n[STDOUT RAW] total_size=25690112\n[STDOUT RAW] out_time_us=1293841958\n[STDOUT RAW] out_time_ms=1293841958\n[STDOUT RAW] out_time=00:21:33.841958\n[STDOUT RAW] dup_frames=0\n[STDOUT RAW] drop_frames=0\n[STDOUT RAW] speed= 167x\n[STDOUT RAW] progress=continue\n[STDERR RAW] size=   25088KiB time=00:21:33.84 bitrate= 158.8kbits/s speed= 167x\n[STDOUT RAW] bitrate= 158.5kbits/s\n[STDOUT RAW] total_size=27525120\n[STDOUT RAW] out_time_us=1389505958\n[STDOUT RAW] out_time_ms=1389505958\n[STDOUT RAW] out_time=00:23:09.505958\n[STDOUT RAW] dup_frames=0\n[STDOUT RAW] drop_frames=0\n[STDOUT RAW] speed= 168x\n[STDOUT RAW] progress=continue\n[STDERR RAW] size=   26880KiB time=00:23:09.50 bitrate= 158.5kbits/s speed= 168x\n[STDOUT RAW] bitrate= 159.2kbits/s\n[STDOUT RAW] total_size=29622272\n[STDOUT RAW] out_time_us=1488841958\n[STDOUT RAW] out_time_ms=1488841958\n[STDOUT RAW] out_time=00:24:48.841958\n[STDOUT RAW] dup_frames=0\n[STDOUT RAW] drop_frames=0\n[STDOUT RAW] speed= 170x\n[STDOUT RAW] progress=continue\n[STDERR RAW] size=   28928KiB time=00:24:48.84 bitrate= 159.2kbits/s speed= 170x\n[STDOUT RAW] bitrate= 158.8kbits/s\n[STDOUT RAW] total_size=31719424\n[STDOUT RAW] out_time_us=1597609958\n[STDOUT RAW] out_time_ms=1597609958\n[STDOUT RAW] out_time=00:26:37.609958\n[STDOUT RAW] dup_frames=0\n[STDOUT RAW] drop_frames=0\n[STDOUT RAW] speed= 172x\n[STDOUT RAW] progress=continue\n[STDERR RAW] size=   30976KiB time=00:26:37.60 bitrate= 158.8kbits/s speed= 172x\n[STDOUT RAW] bitrate= 158.7kbits/s\n[STDOUT RAW] total_size=33554432\n[STDOUT RAW] out_time_us=1690969958\n[STDOUT RAW] out_time_ms=1690969958\n[STDOUT RAW] out_time=00:28:10.969958\n[STDOUT RAW] dup_frames=0\n[STDOUT RAW] drop_frames=0\n[STDOUT RAW] speed= 173x\n[STDOUT RAW] progress=continue\n[STDERR RAW] size=   32768KiB time=00:28:10.96 bitrate= 158.7kbits/s speed= 173x\n[STDOUT RAW] bitrate= 159.2kbits/s\n[STDOUT RAW] total_size=35651584\n[STDOUT RAW] out_time_us=1791817958\n[STDOUT RAW] out_time_ms=1791817958\n[STDOUT RAW] out_time=00:29:51.817958\n[STDOUT RAW] dup_frames=0\n[STDOUT RAW] drop_frames=0\n[STDOUT RAW] speed= 174x\n[STDOUT RAW] progress=continue\n[STDERR RAW] size=   34816KiB time=00:29:51.81 bitrate= 159.2kbits/s speed= 174x\n[STDOUT RAW] bitrate= 158.9kbits/s\n[STDOUT RAW] total_size=37486592\n[STDOUT RAW] out_time_us=1887577958\n[STDOUT RAW] out_time_ms=1887577958\n[STDOUT RAW] out_time=00:31:27.577958\n[STDOUT RAW] dup_frames=0\n[STDOUT RAW] drop_frames=0\n[STDOUT RAW] speed= 174x\n[STDOUT RAW] progress=continue\n[STDERR RAW] size=   36608KiB time=00:31:27.57 bitrate= 158.9kbits/s speed= 174x\n[STDOUT RAW] bitrate= 159.2kbits/s\n[STDOUT RAW] total_size=39583744\n[STDOUT RAW] out_time_us=1989745958\n[STDOUT RAW] out_time_ms=1989745958\n[STDOUT RAW] out_time=00:33:09.745958\n[STDOUT RAW] dup_frames=0\n[STDOUT RAW] drop_frames=0\n[STDOUT RAW] speed= 175x\n[STDOUT RAW] progress=continue\n[STDERR RAW] size=   38656KiB time=00:33:09.74 bitrate= 159.2kbits/s speed= 175x\n[STDOUT RAW] bitrate= 159.3kbits/s\n[STDOUT RAW] total_size=41680896\n[STDOUT RAW] out_time_us=2093041958\n[STDOUT RAW] out_time_ms=2093041958\n[STDOUT RAW] out_time=00:34:53.041958\n[STDOUT RAW] dup_frames=0\n[STDOUT RAW] drop_frames=0\n[STDOUT RAW] speed= 176x\n[STDOUT RAW] progress=continue\n[STDERR RAW] size=   40704KiB time=00:34:53.04 bitrate= 159.3kbits/s speed= 176x\n[STDOUT RAW] bitrate= 159.5kbits/s\n[STDOUT RAW] total_size=43778048\n[STDOUT RAW] out_time_us=2195305958\n[STDOUT RAW] out_time_ms=2195305958\n[STDOUT RAW] out_time=00:36:35.305958\n[STDOUT RAW] dup_frames=0\n[STDOUT RAW] drop_frames=0\n[STDOUT RAW] speed= 177x\n[STDOUT RAW] progress=continue\n[STDERR RAW] size=   42752KiB time=00:36:35.30 bitrate= 159.5kbits/s speed= 177x\n[STDOUT RAW] bitrate= 159.2kbits/s\n[STDOUT RAW] total_size=45875200\n[STDOUT RAW] out_time_us=2305849958\n[STDOUT RAW] out_time_ms=2305849958\n[STDOUT RAW] out_time=00:38:25.849958\n[STDOUT RAW] dup_frames=0\n[STDOUT RAW] drop_frames=0\n[STDOUT RAW] speed= 179x\n[STDOUT RAW] progress=continue\n[STDERR RAW] size=   44800KiB time=00:38:25.84 bitrate= 159.2kbits/s speed= 179x\n[STDOUT RAW] bitrate= 159.2kbits/s\n[STDOUT RAW] total_size=47972352\n[STDOUT RAW] out_time_us=2410993958\n[STDOUT RAW] out_time_ms=2410993958\n[STDOUT RAW] out_time=00:40:10.993958\n[STDOUT RAW] dup_frames=0\n[STDOUT RAW] drop_frames=0\n[STDOUT RAW] speed= 180x\n[STDOUT RAW] progress=continue\n[STDERR RAW] size=   46848KiB time=00:40:10.99 bitrate= 159.2kbits/s speed= 180x\n[STDOUT RAW] bitrate= 159.7kbits/s\n[STDOUT RAW] total_size=50069504\n[STDOUT RAW] out_time_us=2507881958\n[STDOUT RAW] out_time_ms=2507881958\n[STDOUT RAW] out_time=00:41:47.881958\n[STDOUT RAW] dup_frames=0\n[STDOUT RAW] drop_frames=0\n[STDOUT RAW] speed= 180x\n[STDOUT RAW] progress=continue\n[STDERR RAW] size=   48896KiB time=00:41:47.88 bitrate= 159.7kbits/s speed= 180x\n[STDOUT RAW] bitrate= 159.9kbits/s\n[STDOUT RAW] total_size=52166656\n[STDOUT RAW] out_time_us=2610217958\n[STDOUT RAW] out_time_ms=2610217958\n[STDOUT RAW] out_time=00:43:30.217958\n[STDOUT RAW] dup_frames=0\n[STDOUT RAW] drop_frames=0\n[STDOUT RAW] speed= 181x\n[STDOUT RAW] progress=continue\n[STDERR RAW] size=   50944KiB time=00:43:30.21 bitrate= 159.9kbits/s speed= 181x\n[STDOUT RAW] bitrate= 159.9kbits/s\n[STDOUT RAW] total_size=54263808\n[STDOUT RAW] out_time_us=2714833958\n[STDOUT RAW] out_time_ms=2714833958\n[STDOUT RAW] out_time=00:45:14.833958\n[STDOUT RAW] dup_frames=0\n[STDOUT RAW] drop_frames=0\n[STDOUT RAW] speed= 182x\n[STDOUT RAW] progress=continue\n[STDERR RAW] size=   52992KiB time=00:45:14.83 bitrate= 159.9kbits/s speed= 182x\n[STDOUT RAW] bitrate= 160.0kbits/s\n[STDOUT RAW] total_size=56360960\n[STDOUT RAW] out_time_us=2818513958\n[STDOUT RAW] out_time_ms=2818513958\n[STDOUT RAW] out_time=00:46:58.513958\n[STDOUT RAW] dup_frames=0\n[STDOUT RAW] drop_frames=0\n[STDOUT RAW] speed= 182x\n[STDOUT RAW] progress=continue\n[STDERR RAW] size=   55040KiB time=00:46:58.51 bitrate= 160.0kbits/s speed= 182x\n[STDOUT RAW] bitrate= 159.3kbits/s\n[STDOUT RAW] total_size=58195968\n[STDOUT RAW] out_time_us=2922049958\n[STDOUT RAW] out_time_ms=2922049958\n[STDOUT RAW] out_time=00:48:42.049958\n[STDOUT RAW] dup_frames=0\n[STDOUT RAW] drop_frames=0\n[STDOUT RAW] speed= 183x\n[STDOUT RAW] progress=continue\n[STDERR RAW] size=   56832KiB time=00:48:42.04 bitrate= 159.3kbits/s speed= 183x\n[STDOUT RAW] bitrate= 159.9kbits/s\n[STDOUT RAW] total_size=60293120\n[STDOUT RAW] out_time_us=3017089958\n[STDOUT RAW] out_time_ms=3017089958\n[STDOUT RAW] out_time=00:50:17.089958\n[STDOUT RAW] dup_frames=0\n[STDOUT RAW] drop_frames=0\n[STDOUT RAW] speed= 183x\n[STDOUT RAW] progress=continue\n[STDERR RAW] size=   58880KiB time=00:50:17.08 bitrate= 159.9kbits/s speed= 183x\n[STDOUT RAW] bitrate= 159.5kbits/s\n[STDOUT RAW] total_size=62390272\n[STDOUT RAW] out_time_us=3128977958\n[STDOUT RAW] out_time_ms=3128977958\n[STDOUT RAW] out_time=00:52:08.977958\n[STDOUT RAW] dup_frames=0\n[STDOUT RAW] drop_frames=0\n[STDOUT RAW] speed= 184x\n[STDOUT RAW] progress=continue\n[STDERR RAW] size=   60928KiB time=00:52:08.97 bitrate= 159.5kbits/s speed= 184x\n[STDOUT RAW] bitrate= 159.9kbits/s\n[STDOUT RAW] total_size=64487424\n[STDOUT RAW] out_time_us=3226513958\n[STDOUT RAW] out_time_ms=3226513958\n[STDOUT RAW] out_time=00:53:46.513958\n[STDOUT RAW] dup_frames=0\n[STDOUT RAW] drop_frames=0\n[STDOUT RAW] speed= 184x\n[STDOUT RAW] progress=continue\n[STDERR RAW] size=   62976KiB time=00:53:46.51 bitrate= 159.9kbits/s speed= 184x\n[STDOUT RAW] bitrate= 159.4kbits/s\n[STDOUT RAW] total_size=66584576\n[STDOUT RAW] out_time_us=3340825958\n[STDOUT RAW] out_time_ms=3340825958\n[STDOUT RAW] out_time=00:55:40.825958\n[STDOUT RAW] dup_frames=0\n[STDOUT RAW] drop_frames=0\n[STDOUT RAW] speed= 185x\n[STDOUT RAW] progress=continue\n[STDERR RAW] size=   65024KiB time=00:55:40.82 bitrate= 159.4kbits/s speed= 185x\n[STDOUT RAW] bitrate= 159.7kbits/s\n[STDOUT RAW] total_size=68681728\n[STDOUT RAW] out_time_us=3440497958\n[STDOUT RAW] out_time_ms=3440497958\n[STDOUT RAW] out_time=00:57:20.497958\n[STDOUT RAW] dup_frames=0\n[STDOUT RAW] drop_frames=0\n[STDOUT RAW] speed= 185x\n[STDOUT RAW] progress=continue\n[STDERR RAW] size=   67072KiB time=00:57:20.49 bitrate= 159.7kbits/s speed= 185x\n[STDOUT RAW] bitrate= 159.8kbits/s\n[STDOUT RAW] total_size=70516736\n[STDOUT RAW] out_time_us=3529825958\n[STDOUT RAW] out_time_ms=3529825958\n[STDOUT RAW] out_time=00:58:49.825958\n[STDOUT RAW] dup_frames=0\n[STDOUT RAW] drop_frames=0\n[STDOUT RAW] speed= 185x\n[STDOUT RAW] progress=continue\n[STDERR RAW] size=   68864KiB time=00:58:49.82 bitrate= 159.8kbits/s speed= 185x\n[STDOUT RAW] bitrate= 159.5kbits/s\n[STDOUT RAW] total_size=72351744\n[STDOUT RAW] out_time_us=3629761958\n[STDOUT RAW] out_time_ms=3629761958\n[STDOUT RAW] out_time=01:00:29.761958\n[STDOUT RAW] dup_frames=0\n[STDOUT RAW] drop_frames=0\n[STDOUT RAW] speed= 185x\n[STDOUT RAW] progress=continue\n[STDERR RAW] size=   70656KiB time=01:00:29.76 bitrate= 159.5kbits/s speed= 185x\n[STDOUT RAW] bitrate= 159.4kbits/s\n[STDOUT RAW] total_size=74448896\n[STDOUT RAW] out_time_us=3735673958\n[STDOUT RAW] out_time_ms=3735673958\n[STDOUT RAW] out_time=01:02:15.673958\n[STDOUT RAW] dup_frames=0\n[STDOUT RAW] drop_frames=0\n[STDOUT RAW] speed= 186x\n[STDOUT RAW] progress=continue\n[STDERR RAW] size=   72704KiB time=01:02:15.67 bitrate= 159.4kbits/s speed= 186x\n[STDOUT RAW] bitrate= 159.9kbits/s\n[STDOUT RAW] total_size=76546048\n[STDOUT RAW] out_time_us=3829249958\n[STDOUT RAW] out_time_ms=3829249958\n[STDOUT RAW] out_time=01:03:49.249958\n[STDOUT RAW] dup_frames=0\n[STDOUT RAW] drop_frames=0\n[STDOUT RAW] speed= 186x\n[STDOUT RAW] progress=continue\n[STDERR RAW] size=   74752KiB time=01:03:49.24 bitrate= 159.9kbits/s speed= 186x\n[STDOUT RAW] bitrate= 159.8kbits/s\n[STDOUT RAW] total_size=78118912\n[STDOUT RAW] out_time_us=3911761958\n[STDOUT RAW] out_time_ms=3911761958\n[STDOUT RAW] out_time=01:05:11.761958\n[STDOUT RAW] dup_frames=0\n[STDOUT RAW] drop_frames=0\n[STDOUT RAW] speed= 185x\n[STDOUT RAW] progress=continue\n[STDERR RAW] size=   76288KiB time=01:05:11.76 bitrate= 159.8kbits/s speed= 185x\n[STDOUT RAW] bitrate= 159.7kbits/s\n[STDOUT RAW] total_size=79953920\n[STDOUT RAW] out_time_us=4005121958\n[STDOUT RAW] out_time_ms=4005121958\n[STDOUT RAW] out_time=01:06:45.121958\n[STDOUT RAW] dup_frames=0\n[STDOUT RAW] drop_frames=0\n[STDOUT RAW] speed= 185x\n[STDOUT RAW] progress=continue\n[STDERR RAW] size=   78080KiB time=01:06:45.12 bitrate= 159.7kbits/s speed= 185x\n[STDOUT RAW] bitrate= 159.7kbits/s\n[STDOUT RAW] total_size=81788928\n[STDOUT RAW] out_time_us=4097809958\n[STDOUT RAW] out_time_ms=4097809958\n[STDOUT RAW] out_time=01:08:17.809958\n[STDOUT RAW] dup_frames=0\n[STDOUT RAW] drop_frames=0\n[STDOUT RAW] speed= 185x\n[STDOUT RAW] progress=continue\n[STDERR RAW] size=   79872KiB time=01:08:17.80 bitrate= 159.7kbits/s speed= 185x\n[STDOUT RAW] bitrate= 159.5kbits/s\n[STDOUT RAW] total_size=83623936\n[STDOUT RAW] out_time_us=4193137958\n[STDOUT RAW] out_time_ms=4193137958\n[STDOUT RAW] out_time=01:09:53.137958\n[STDOUT RAW] dup_frames=0\n[STDOUT RAW] drop_frames=0\n[STDOUT RAW] speed= 185x\n[STDOUT RAW] progress=continue\n[STDERR RAW] size=   81664KiB time=01:09:53.13 bitrate= 159.5kbits/s speed= 185x\n[STDOUT RAW] bitrate= 159.9kbits/s\n[STDOUT RAW] total_size=85721088\n[STDOUT RAW] out_time_us=4288705958\n[STDOUT RAW] out_time_ms=4288705958\n[STDOUT RAW] out_time=01:11:28.705958\n[STDOUT RAW] dup_frames=0\n[STDOUT RAW] drop_frames=0\n[STDOUT RAW] speed= 185x\n[STDOUT RAW] progress=continue\n[STDERR RAW] size=   83712KiB time=01:11:28.70 bitrate= 159.9kbits/s speed= 185x\n[STDOUT RAW] bitrate= 159.7kbits/s\n[STDOUT RAW] total_size=87818240\n[STDOUT RAW] out_time_us=4397785958\n[STDOUT RAW] out_time_ms=4397785958\n[STDOUT RAW] out_time=01:13:17.785958\n[STDOUT RAW] dup_frames=0\n[STDOUT RAW] drop_frames=0\n[STDOUT RAW] speed= 185x\n[STDOUT RAW] progress=continue\n[STDERR RAW] size=   85760KiB time=01:13:17.78 bitrate= 159.7kbits/s speed= 185x\n[STDOUT RAW] bitrate= 159.5kbits/s\n[STDOUT RAW] total_size=89915392\n[STDOUT RAW] out_time_us=4509001958\n[STDOUT RAW] out_time_ms=4509001958\n[STDOUT RAW] out_time=01:15:09.001958\n[STDOUT RAW] dup_frames=0\n[STDOUT RAW] drop_frames=0\n[STDOUT RAW] speed= 186x\n[STDOUT RAW] progress=continue\n[STDERR RAW] size=   87808KiB time=01:15:09.00 bitrate= 159.5kbits/s speed= 186x\n[STDOUT RAW] bitrate= 159.5kbits/s\n[STDOUT RAW] total_size=92012544\n[STDOUT RAW] out_time_us=4613857958\n[STDOUT RAW] out_time_ms=4613857958\n[STDOUT RAW] out_time=01:16:53.857958\n[STDOUT RAW] dup_frames=0\n[STDOUT RAW] drop_frames=0\n[STDOUT RAW] speed= 186x\n[STDOUT RAW] progress=continue\n[STDOUT RAW] bitrate= 159.8kbits/s\n[STDERR RAW] size=   89856KiB time=01:16:53.85 bitrate= 159.5kbits/s speed= 186x\n[STDOUT RAW] total_size=93847552\n[STDOUT RAW] out_time_us=4697569958\n[STDOUT RAW] out_time_ms=4697569958\n[STDOUT RAW] out_time=01:18:17.569958\n[STDOUT RAW] dup_frames=0\n[STDOUT RAW] drop_frames=0\n[STDOUT RAW] speed= 186x\n[STDOUT RAW] progress=continue\n[STDERR RAW] size=   91648KiB time=01:18:17.56 bitrate= 159.8kbits/s speed= 186x\n[STDOUT RAW] bitrate= 160.0kbits/s\n[STDOUT RAW] total_size=95682560\n[STDOUT RAW] out_time_us=4784257958\n[STDOUT RAW] out_time_ms=4784257958\n[STDOUT RAW] out_time=01:19:44.257958\n[STDOUT RAW] dup_frames=0\n[STDOUT RAW] drop_frames=0\n[STDOUT RAW] speed= 186x\n[STDOUT RAW] progress=continue\n[STDERR RAW] size=   93440KiB time=01:19:44.25 bitrate= 160.0kbits/s speed= 186x\n[STDOUT RAW] bitrate= 159.9kbits/s\n[STDOUT RAW] total_size=97517568\n[STDOUT RAW] out_time_us=4877713958\n[STDOUT RAW] out_time_ms=4877713958\n[STDOUT RAW] out_time=01:21:17.713958\n[STDOUT RAW] dup_frames=0\n[STDOUT RAW] drop_frames=0\n[STDOUT RAW] speed= 185x\n[STDOUT RAW] progress=continue\n[STDOUT RAW] bitrate= 159.9kbits/s\n[STDOUT RAW] total_size=99352576\n[STDOUT RAW] out_time_us=4969441958\n[STDOUT RAW] out_time_ms=4969441958\n[STDOUT RAW] out_time=01:22:49.441958\n[STDOUT RAW] dup_frames=0\n[STDOUT RAW] drop_frames=0\n[STDOUT RAW] speed= 185x\n[STDOUT RAW] progress=continue\n[STDERR RAW] size=   95232KiB time=01:21:17.71 bitrate= 159.9kbits/s speed= 185x\n[STDERR RAW] size=   97024KiB time=01:22:49.44 bitrate= 159.9kbits/s speed= 185x\n[STDOUT RAW] bitrate= 160.0kbits/s\n[STDOUT RAW] total_size=101449728\n[STDOUT RAW] out_time_us=5073505958\n[STDOUT RAW] out_time_ms=5073505958\n[STDOUT RAW] out_time=01:24:33.505958\n[STDOUT RAW] dup_frames=0\n[STDOUT RAW] drop_frames=0\n[STDOUT RAW] speed= 186x\n[STDOUT RAW] progress=continue\n[STDERR RAW] size=   99072KiB time=01:24:33.50 bitrate= 160.0kbits/s speed= 186x\n[STDOUT RAW] bitrate= 159.9kbits/s\n[STDOUT RAW] total_size=103284736\n[STDOUT RAW] out_time_us=5167129958\n[STDOUT RAW] out_time_ms=5167129958\n[STDOUT RAW] out_time=01:26:07.129958\n[STDOUT RAW] dup_frames=0\n[STDOUT RAW] drop_frames=0\n[STDOUT RAW] speed= 186x\n[STDOUT RAW] progress=continue\n[STDERR RAW] size=  100864KiB time=01:26:07.12 bitrate= 159.9kbits/s speed= 186x\n[STDOUT RAW] bitrate= 159.6kbits/s\n[STDOUT RAW] total_size=105119744\n[STDOUT RAW] out_time_us=5268985958\n[STDOUT RAW] out_time_ms=5268985958\n[STDOUT RAW] out_time=01:27:48.985958\n[STDOUT RAW] dup_frames=0\n[STDOUT RAW] drop_frames=0\n[STDOUT RAW] speed= 186x\n[STDOUT RAW] progress=continue\n[STDERR RAW] size=  102656KiB time=01:27:48.98 bitrate= 159.6kbits/s speed= 186x\n[STDOUT RAW] bitrate= 159.6kbits/s\n[STDOUT RAW] total_size=106954752\n[STDOUT RAW] out_time_us=5360977958\n[STDOUT RAW] out_time_ms=5360977958\n[STDOUT RAW] out_time=01:29:20.977958\n[STDOUT RAW] dup_frames=0\n[STDOUT RAW] drop_frames=0\n[STDOUT RAW] speed= 186x\n[STDOUT RAW] progress=continue\n[STDERR RAW] size=  104448KiB time=01:29:20.97 bitrate= 159.6kbits/s speed= 186x\n[STDOUT RAW] bitrate= 159.9kbits/s\n[STDOUT RAW] total_size=109051904\n[STDOUT RAW] out_time_us=5456569958\n[STDOUT RAW] out_time_ms=5456569958\n[STDOUT RAW] out_time=01:30:56.569958\n[STDOUT RAW] dup_frames=0\n[STDOUT RAW] drop_frames=0\n[STDOUT RAW] speed= 186x\n[STDOUT RAW] progress=continue\n[STDERR RAW] size=  106496KiB time=01:30:56.56 bitrate= 159.9kbits/s speed= 186x\n[STDOUT RAW] bitrate= 160.0kbits/s\n[STDOUT RAW] total_size=111149056\n[STDOUT RAW] out_time_us=5557609958\n[STDOUT RAW] out_time_ms=5557609958\n[STDOUT RAW] out_time=01:32:37.609958\n[STDOUT RAW] dup_frames=0\n[STDOUT RAW] drop_frames=0\n[STDOUT RAW] speed= 186x\n[STDOUT RAW] progress=continue\n[STDERR RAW] size=  108544KiB time=01:32:37.60 bitrate= 160.0kbits/s speed= 186x\n[STDOUT RAW] bitrate= 159.7kbits/s\n[STDOUT RAW] total_size=112721920\n[STDOUT RAW] out_time_us=5647273958\n[STDOUT RAW] out_time_ms=5647273958\n[STDOUT RAW] out_time=01:34:07.273958\n[STDOUT RAW] dup_frames=0\n[STDOUT RAW] drop_frames=0\n[STDOUT RAW] speed= 186x\n[STDOUT RAW] progress=continue\n[STDERR RAW] size=  110080KiB time=01:34:07.27 bitrate= 159.7kbits/s speed= 186x\n[STDOUT RAW] bitrate= 159.8kbits/s\n[STDOUT RAW] total_size=114556928\n[STDOUT RAW] out_time_us=5735401958\n[STDOUT RAW] out_time_ms=5735401958\n[STDOUT RAW] out_time=01:35:35.401958\n[STDOUT RAW] dup_frames=0\n[STDOUT RAW] drop_frames=0\n[STDOUT RAW] speed= 185x\n[STDOUT RAW] progress=continue\n[STDERR RAW] size=  111872KiB time=01:35:35.40 bitrate= 159.8kbits/s speed= 185x\n[STDOUT RAW] bitrate= 159.8kbits/s\n[STDOUT RAW] total_size=116391936\n[STDOUT RAW] out_time_us=5827897958\n[STDOUT RAW] out_time_ms=5827897958\n[STDOUT RAW] out_time=01:37:07.897958\n[STDOUT RAW] dup_frames=0\n[STDOUT RAW] drop_frames=0\n[STDOUT RAW] speed= 185x\n[STDOUT RAW] progress=continue\n[STDOUT RAW] bitrate= 159.9kbits/s\n[STDERR RAW] size=  113664KiB time=01:37:07.89 bitrate= 159.8kbits/s speed= 185x\n[STDOUT RAW] total_size=118226944\n[STDOUT RAW] out_time_us=5915977958\n[STDOUT RAW] out_time_ms=5915977958\n[STDOUT RAW] out_time=01:38:35.977958\n[STDOUT RAW] dup_frames=0\n[STDOUT RAW] drop_frames=0\n[STDOUT RAW] speed= 185x\n[STDOUT RAW] progress=continue\n[ConversionWorker] Cancel method called.\n[ConversionWorker] Cancellation requested during processing. Terminating FFmpeg.\n[ConversionWorker] Waiting for reader threads to join...\n[STDERR RAW] size=  115456KiB time=01:38:35.97 bitrate= 159.9kbits/s speed= 185x\n[ConversionWorker] Process poll is None after loop, waiting for process to terminate...\n[ConversionWorker] FFmpeg process ended. Return code: 1\n[ConversionWorker] Closing FFmpeg log file.\n